<?xml version="1.0" ?>
<svg viewBox="0 0 32 32" xmlns="http://www.w3.org/2000/svg">
    <title>Mocha Mouse Theme Icon</title>
    <g id="steam">
        <path fill="#946a4f" d="M27,30H5a1,1,0,0,1,0-2H27a1,1,0,1,1,0,2Z"/>
        <path fill="#946a4f" d="M15.5,13a1,1,0,0,1-1-1v-.5A.5.5,0,0,0,14,11H11a2.5,2.5,0,0,1,0-5h9.5a1,1,0,0,0,0-2h-10a1,1,0,0,1,0-2h10a3,3,0,0,1,0,6H11a.5.5,0,0,0,0,1h3a2.5,2.5,0,0,1,2.5,2.5V12A1,1,0,0,1,15.5,13Z"/>
    </g>
    <g id="mouse" transform="translate(2 13)">
    <path
            fill-rule="evenodd"
            clip-rule="evenodd"
            d="m 32.2498,0.09119829 c -1.8168,0.3791 -3.4149,1.67820001 -5.5867,4.54090001 -1.4448,1.9046 -2.7189,3.241 -3.09,3.241 -0.1313,0 -0.3966,-0.3053 -0.5893,-0.6786 -0.5866,-1.1356 -2.1521,-2.7222 -3.4244,-3.4714 -1.7258,-1.0159 -3.548,-1.5188 -5.542,-1.5293 -1.5183,-0.008 -1.7248,0.0369 -2.9991,0.6563 -1.4445,0.702 -2.6309,0.9808 -3.0305,0.7121 -0.1919,-0.1288 -0.1988,-0.3149 -0.0342,-0.926 0.2658,-0.9879 -0.0904,-1.63970001 -0.8962,-1.63970001 -0.5249,0 -1.2293,0.69650001 -1.5097,1.49300001 -0.1194,0.3393 -0.4845,0.4386 -0.4845,0.1319 0,-0.1017 -0.20305,-0.2776 -0.45133,-0.3907 -0.615,-0.2805 -1.17611,0.2168 -1.17611,1.0418 0,0.5058 -0.085,0.6201 -0.5877,0.7901 C 2.2063,4.2793983 0,6.2896983 0,6.6575983 c 0,0.1256 0.24249,0.5228 0.53905,0.8827 0.57504,0.698 0.95225,0.8221 3.02022,0.9937 1.07268,0.089 1.15513,0.1321 2.03433,1.0622 0.504,0.5332997 0.9163,1.1300997 0.9163,1.3262997 0,0.3818 -0.8487,1.1942 -1.4458,1.3838 -0.44662,0.1419 -0.47537,0.4425 -0.0461,0.4814 0.6213,0.0564 0.9859,-0.0348 2.0005,-0.4998 1.8863,-0.8645 3.0099,-1.2224 3.8456,-1.2248 1.6441,-0.005 2.6903,0.8578 2.0869,1.7199 -0.1611,0.2302 -0.2929,0.4775 -0.2929,0.5497 0,0.2469 1.433,0.0822 1.4858,-0.1706 0.0344,-0.1638 0.4098,-0.2649 1.1362,-0.3064 1.066,-0.0608 2.6461,-0.6011 2.884,-0.9864 0.1527,-0.2472 2.0286,-0.259 2.1799,-0.0138 0.0621,0.1003 -0.0349,0.2282 -0.2153,0.2845 -0.9217,0.2876 -1.1342,0.6723 -0.4262,0.7724 0.9102,0.1284 1.7927,-0.3024 2.1817,-1.0654 0.2009,-0.3941 0.4461,-0.7166 0.545,-0.7166 0.2618,0 0.8963,-1.1098 0.8971,-1.5692997 5e-4,-0.2839 0.1662,-0.4479 0.5962,-0.5899 0.7848,-0.2592 2.1003,-1.65 3.8061,-4.0244 2.3104,-3.2159 3.7091,-4.18010001 6.0865,-4.19580001 1.0034,-0.007 1.5738,0.0894 2.192,0.36930001 1.0458,0.4732 2.1189,1.6342 2.4041,2.1426 0.1378,0.2861 1.4614,2.7228 1.5656,2.7228 0.2081,0 -1.0419,-2.7894 -1.4278,-3.5491 -0.3334,-0.6567 -1.5699,-1.59530001 -2.4753,-1.98370001 -0.9268,-0.3976 -2.8024,-0.5751 -3.8239,-0.3617 z M 15.5965,11.328798 c 0.4724,0.1312 0.859,0.2918 0.859,0.357 0,0.1625 -2.0286,0.9831 -2.2282,0.8597 -0.0883,-0.0545 -0.1226,-0.7806 -0.1226,-1.085 0,-0.4412 0.0642,-0.5348 0.3164,-0.4618 0.1742,0.0503 0.7031,0.1989 1.1754,0.3301 z"
            fill="#a47864" /></g>
</svg>