<?xml version="1.0" ?>
<svg viewBox="0 0 32 32" xmlns="http://www.w3.org/2000/svg">
    <title>Mocha Mouse Dark Theme Icon</title>
    <g id="cup">
        <path fill="#946a4f" d="M27,30H5a1,1,0,0,1,0-2H27a1,1,0,1,1,0,2Z"/>
        <path fill="#a47864" d="M15.5,13a1,1,0,0,1-1-1v-.5A.5.5,0,0,0,14,11H11a2.5,2.5,0,0,1,0-5h9.5a1,1,0,0,0,0-2h-10a1,1,0,0,1,0-2h10a3,3,0,0,1,0,6H11a.5.5,0,0,0,0,1h3a2.5,2.5,0,0,1,2.5,2.5V12A1,1,0,0,1,15.5,13Z"/>
        <path fill="#8f705f" d="M26.5,16.12v2.09a2.49,2.49,0,0,1-.42,4.71A10.44,10.44,0,0,1,25.23,25h.27a4.5,4.5,0,0,0,1-8.88Z"/>

        <path fill="#8f705f" d="M25,14H7a1,1,0,0,0-1,1v5a10,10,0,0,0,20,0V15A1,1,0,0,0,25,14Zm-8.57,4.1A9.47,9.47,0,0,0,8,18.22V16H24v2.36A9.29,9.29,0,0,1,16.43,18.1Z"/>
    </g>
</svg>